<svg xmlns="http://www.w3.org/2000/svg" viewBox="0 0 256 256" fill="#092E20">
  <path d="M186.367 191.087h-21.952V111.55c0-11.35-4.13-15.545-12.545-15.545-9.291 0-13.421 6.254-13.421 15.545v79.537h-21.952V111.55c0-11.35-4.13-15.545-12.545-15.545-9.291 0-13.421 6.254-13.421 15.545v79.537H68.58V107.42c0-14.603 9.291-21.734 21.952-21.734 10.167 0 19.458 5.377 23.588 13.421 5.16-8.044 14.45-13.421 24.618-13.421 14.603 0 26.082 7.168 26.082 21.734v83.667h21.547zM7.168 64.45h21.952v126.637H7.168V64.45zm0-64.45h21.952v21.952H7.168V0z" fill="#092E20"/>
</svg>

