<svg xmlns="http://www.w3.org/2000/svg" viewBox="0 0 272.96 114.01" fill="#F05032">
  <path d="M163.59 38.806c-5.985 0-10.442 2.939-10.442 10.012 0 5.33 2.938 9.028 10.12 9.028 6.088 0 10.222-3.587 10.222-9.248 0-6.416-3.7-9.792-9.9-9.792zm-11.97 49.94c-1.416 1.738-2.828 3.585-2.828 5.765 0 4.348 5.546 5.656 13.163 5.656 6.31 0 14.905-.441 14.905-6.308 0-3.487-4.135-3.703-9.36-4.03l-15.88-1.083zm32.201-49.611c1.955 2.503 4.025 5.985 4.025 10.989 0 12.075-9.465 19.146-23.169 19.146-3.485 0-6.64-.434-8.596-.977l-3.591 5.765 10.66.65c18.822 1.2 29.915 1.743 29.915 16.209 0 12.514-10.985 19.58-29.915 19.58-19.69 0-27.196-5.004-27.196-13.597 0-4.898 2.176-7.503 5.983-11.098-3.59-1.518-4.786-4.236-4.786-7.175 0-2.395 1.196-4.57 3.156-6.638 1.955-2.07 4.13-4.135 6.744-6.527-5.33-2.61-9.356-8.267-9.356-16.319 0-12.509 8.269-21.1 24.91-21.1 4.679 0 7.509.43 10.011 1.088h21.215v9.244l-10.01.762M212.98 19.366c-6.202 0-9.791-3.593-9.791-9.796 0-6.196 3.589-9.57 9.791-9.57 6.199 0 9.9 3.374 9.9 9.57 0 6.203-3.701 9.796-9.9 9.796zm-14.036 65.376V16.77h28.069v67.972h-28.069M272.97 80.526c-4.351 2.393-10.76 4.135-16.523 4.135-12.953 0-17.962-5.219-17.962-17.744V41.845h-8.486V31.15l8.486-1.416v-8.37l28.069-4.348v12.718h13.921v12.111h-13.921v23.953c0 4.463 1.09 6.642 5.33 6.642 2.176 0 4.567-.542 6.636-1.307l4.45 9.794" fill="#F05032"/>
  <path d="M111.78 51.977L62.035 2.238a7.335 7.335 0 00-10.374 0l-10.329 10.33 13.102 13.102c3.046-1.028 6.538-.339 8.963 2.085a8.72 8.72 0 012.4 7.5l12.628 12.628c2.454-.835 5.272-.59 7.501 2.401a8.727 8.727 0 010 12.346 8.73 8.73 0 01-14.661-9.326L59.56 39.683l-.01 32.136a8.92 8.92 0 012.285 1.522 8.729 8.729 0 010 12.345 8.73 8.73 0 01-12.348 0 8.728 8.728 0 010-12.346c.612-.611 1.322-1.074 2.084-1.384V38.814c-.762-.31-1.472-.772-2.084-1.384a8.711 8.711 0 01-1.88-9.494L34.545 14.946 1.19 48.301a7.335 7.335 0 000 10.374l49.745 49.739a7.336 7.336 0 0010.374 0l49.472-49.472a7.34 7.34 0 000-10.374" fill="#F05032"/>
</svg>

