<svg xmlns="http://www.w3.org/2000/svg" viewBox="0 0 16.933 16.933" fill="#E0234E">
  <path d="M11.433 2.098a.241.241 0 0 0-.13.033L5.355 5.385a.241.241 0 0 0-.112.204v6.508a.241.241 0 0 0 .112.204l5.949 3.254a.241.241 0 0 0 .241 0l5.949-3.254a.241.241 0 0 0 .112-.204V5.589a.241.241 0 0 0-.112-.204L11.544 2.13a.241.241 0 0 0-.112-.033zm-.033.503l5.574 3.05v6.13l-5.574 3.05-5.574-3.05v-6.13l5.574-3.05zm-1.655.921a.241.241 0 0 0-.124.047l-3.568 2.334a.241.241 0 0 0-.1.196v4.669a.241.241 0 0 0 .1.196l3.568 2.334a.241.241 0 0 0 .266 0l3.568-2.334a.241.241 0 0 0 .1-.196V6.099a.241.241 0 0 0-.1-.196L9.887 3.569a.241.241 0 0 0-.142-.047zm.017.503l3.327 2.177v4.334L9.762 12.713 6.435 10.536V6.202l3.327-2.177zm5.677 1.183a.241.241 0 0 0-.124.047l-3.568 2.334a.241.241 0 0 0-.1.196v4.669a.241.241 0 0 0 .1.196l3.568 2.334a.241.241 0 0 0 .266 0l3.568-2.334a.241.241 0 0 0 .1-.196V7.785a.241.241 0 0 0-.1-.196l-3.568-2.334a.241.241 0 0 0-.142-.047zm.017.503l3.327 2.177v4.334l-3.327 2.177-3.327-2.177V7.888l3.327-2.177z"/>
</svg>

