<svg xmlns="http://www.w3.org/2000/svg" viewBox="0 0 432.071 445.383" fill="#336791">
  <path d="M214.778 0c-11.893.167-23.703 1.573-34.445 4.203-30.422 7.444-35.114 20.563-35.114 46.281V81.75h70.227v8.938H94.05c-25.883 0-48.545 15.558-55.643 45.11-8.195 33.936-8.557 55.106 0 90.59 6.347 26.354 21.487 45.111 47.37 45.111h30.63v-40.64c0-29.356 25.412-55.271 55.643-55.271h70.172c24.736 0 44.308-20.37 44.308-45.112V50.484c0-24.06-20.326-42.126-44.308-46.281C231.308.97 226.671-.167 214.778 0zm-38.06 27.125c7.253 0 13.2 6.022 13.2 13.422 0 7.368-5.947 13.367-13.2 13.367-7.286 0-13.2-5.999-13.2-13.367 0-7.4 5.914-13.422 13.2-13.422z" fill="#336791"/>
  <path d="M274.997 90.688v39.374c0 30.534-25.882 56.25-55.643 56.25h-70.172c-24.367 0-44.308 20.857-44.308 45.111v84.534c0 24.06 20.934 38.225 44.308 45.111 28.049 8.25 54.92 9.734 85.227 0 20.113-6.422 44.308-19.354 44.308-45.111v-33.746H145.445v-8.938h129.535c25.883 0 35.475-18.043 44.308-45.111 9.157-27.95 8.776-54.822 0-90.59-6.304-25.747-18.371-45.11-44.308-45.11h-16.695zm-39.374 213.844c7.286 0 13.2 5.998 13.2 13.367 0 7.4-5.914 13.422-13.2 13.422-7.253 0-13.2-6.022-13.2-13.422 0-7.369 5.947-13.367 13.2-13.367z" fill="#336791"/>
</svg>

