<svg xmlns="http://www.w3.org/2000/svg" viewBox="0 0 110.421 109.846" fill="#366994">
  <path d="M55.344 0C27.11 0 28.903 12.316 28.903 12.316l.033 12.753h26.934v3.803H18.377S0 26.2 0 54.688c0 28.488 16.033 27.471 16.033 27.471h9.57v-13.22s-.516-16.033 15.77-16.033h27.161s15.246.245 15.246-14.727V14.001S86.3 0 55.344 0zm-14.9 8.112a4.868 4.868 0 014.867 4.868 4.868 4.868 0 01-4.868 4.867 4.868 4.868 0 01-4.867-4.867 4.868 4.868 0 014.867-4.868z" fill="#366994"/>
  <path d="M55.344 109.846c28.235 0 26.441-12.316 26.441-12.316l-.033-12.753H54.818v-3.803h37.493s18.377 2.671 18.377-25.816c0-28.488-16.033-27.471-16.033-27.471h-9.57v13.22s.516 16.033-15.77 16.033H42.154s-15.246-.245-15.246 14.727v24.178s-2.518 14.001 28.437 14.001zm14.9-8.112a4.868 4.868 0 01-4.867-4.868 4.868 4.868 0 014.867-4.867 4.868 4.868 0 014.868 4.867 4.868 4.868 0 01-4.868 4.868z" fill="#366994"/>
</svg>

