<svg xmlns="http://www.w3.org/2000/svg" viewBox="0 0 400 400" fill="#007acc">
  <path d="M0 200V0h400v400H0M322.68 89.43H135.89v30.12h62.19v180.72h40.3V119.55h84.3M203.59 200.41l-15.29-9.37a52.11 52.11 0 0 1-13.15-12.66c-1.65-2.5-2.42-5-2.42-8.41 0-3.37.84-6.5 2.53-9.41a25.4 25.4 0 0 1 7.83-7.62 40.61 40.61 0 0 1 11.62-5c4.53-1.13 9.63-1.7 15.21-1.7 5.21 0 10.27.6 15.05 1.8a39.02 39.02 0 0 1 12.66 5.41c3.74 2.4 6.72 5.47 8.88 9.11a25.11 25.11 0 0 1 3.26 13.03h-19.43c0-2.13-.46-4.06-1.36-5.77a12.62 12.62 0 0 0-3.9-4.4 18.45 18.45 0 0 0-6.07-2.8 29.93 29.93 0 0 0-7.83-.97 33.7 33.7 0 0 0-7.34.72 17.25 17.25 0 0 0-5.7 2.18 10.82 10.82 0 0 0-3.7 3.65 9.67 9.67 0 0 0-1.31 5.12c0 1.86.36 3.46 1.07 4.8.72 1.34 1.9 2.62 3.55 3.85a41.58 41.58 0 0 0 6.3 3.75c2.54 1.24 5.7 2.63 9.5 4.16l16.52 6.8c2.96 1.24 5.8 2.82 8.5 4.75a36.74 36.74 0 0 1 7.34 6.65 30.81 30.81 0 0 1 5.12 8.88c1.24 3.33 1.85 7.14 1.85 11.42 0 4.28-.82 8.22-2.47 11.81a25.96 25.96 0 0 1-7.34 9.16c-3.24 2.54-7.24 4.5-12.03 5.9-4.78 1.38-10.27 2.08-16.47 2.08-5.58 0-10.97-.7-16.18-2.08a43.1 43.1 0 0 1-13.64-6.17 32.25 32.25 0 0 1-9.36-10.27c-2.33-4.06-3.5-8.74-3.5-14.04h19.43c0 2.75.56 5.12 1.7 7.1a14.04 14.04 0 0 0 4.65 4.89c1.96 1.24 4.26 2.16 6.9 2.76a36.3 36.3 0 0 0 8.55.87c2.54 0 4.94-.24 7.2-.73a18.59 18.59 0 0 0 5.94-2.37 12.48 12.48 0 0 0 4.02-4.11c.98-1.65 1.46-3.65 1.46-6 0-2.34-.48-4.33-1.46-5.95a15.63 15.63 0 0 0-4.11-4.4 30.76 30.76 0 0 0-6.42-3.7c-2.54-1.14-5.43-2.3-8.7-3.51"/>
</svg>

